<svg width="60" height="60" viewBox="0 0 60 60" fill="none" xmlns="http://www.w3.org/2000/svg">
<g id="Group 93" filter="url(#filter0_d_2_470)">
<path id="Vector" d="M30.2825 0.00231934V51.7301C44.5119 51.5802 56 40.0576 56 25.8662C56 11.6748 44.5119 0.152207 30.2825 0.00231934V0.00231934Z" fill="#FFBB54"/>
<path id="Vector_2" d="M30.2825 0.00208177C30.1883 0.00104088 30.0942 0 30 0C15.6409 0 4 11.5809 4 25.866C4 40.1511 15.6409 51.7319 30 51.7319C30.0942 51.7319 30.1883 51.7309 30.2825 51.7299C42.1996 51.5508 51.8149 40.0397 51.8149 25.866C51.8149 11.6923 42.1996 0.181114 30.2825 0.00208177Z" fill="#FFD45A"/>
<path id="Vector_3" d="M40.3058 22.7643L30.1329 35.6973H40.5841C42.3764 33.425 43.4447 30.5605 43.4447 27.4483V25.8869C43.4447 24.1695 42.0322 22.7643 40.3058 22.7643V22.7643Z" fill="#B74147"/>
<path id="Vector_4" d="M19.6942 22.7643C17.9678 22.7643 16.5553 24.1695 16.5553 25.8869V27.4483C16.5553 30.5605 17.6236 33.425 19.4159 35.6973L38.9865 33.9985C39.8266 32.0625 40.3058 29.8277 40.3058 27.4483V25.8872L19.6942 22.7643Z" fill="#FF3C1F"/>
<path id="Vector_5" d="M38.9865 33.9982L30.1329 40.8222C34.3755 40.7816 38.1474 38.7862 40.5841 35.6969C40.1018 35.0859 39.5672 34.5165 38.9865 33.9982Z" fill="#FA4087"/>
<path id="Vector_6" d="M38.9865 33.9983C37.2413 38.0255 33.9351 40.7599 30.1329 40.8223C30.089 40.8234 30.044 40.8234 30 40.8234C25.703 40.8234 21.8778 38.8186 19.4159 35.697C21.8778 32.5765 25.703 30.5707 30 30.5707C33.4548 30.5707 36.6052 31.8676 38.9865 33.9983Z" fill="#FA71A3"/>
<path id="Vector_7" d="M37.167 22.7643L35.5976 27.4483H38.7364C39.5996 27.4483 40.3058 26.7457 40.3058 25.8869V22.7643H37.167Z" fill="#FFF7DF"/>
<path id="Vector_8" d="M37.167 22.7643V25.8869C37.167 26.7457 36.4608 27.4483 35.5976 27.4483H21.2636C20.4004 27.4483 19.6942 26.7457 19.6942 25.8869V22.7643H37.167Z" fill="white"/>
<path id="Vector_9" d="M30.7847 44.7273H29.2153C28.7818 44.7273 28.4306 44.3778 28.4306 43.9467C28.4306 43.5155 28.7818 43.166 29.2153 43.166H30.7847C31.2182 43.166 31.5694 43.5155 31.5694 43.9467C31.5694 44.3778 31.2182 44.7273 30.7847 44.7273Z" fill="#FFBB54"/>
<g id="Group">
<path id="Vector_10" d="M38.7364 11.8347C37.8733 11.8347 37.167 12.5373 37.167 13.396V18.08C37.167 18.9387 37.8733 19.6413 38.7364 19.6413C39.5996 19.6413 40.3059 18.9387 40.3059 18.08V13.396C40.3059 12.5373 39.5996 11.8347 38.7364 11.8347V11.8347Z" fill="#474867"/>
<path id="Vector_11" d="M21.2636 11.8359C20.4004 11.8359 19.6942 12.5385 19.6942 13.3973V18.0812C19.6942 18.94 20.4004 19.6426 21.2636 19.6426C22.1267 19.6426 22.833 18.94 22.833 18.0812V13.3973C22.833 12.5385 22.1267 11.8359 21.2636 11.8359Z" fill="#474867"/>
</g>
</g>
<defs>
<filter id="filter0_d_2_470" x="0" y="0" width="60" height="59.7319" filterUnits="userSpaceOnUse" color-interpolation-filters="sRGB">
<feFlood flood-opacity="0" result="BackgroundImageFix"/>
<feColorMatrix in="SourceAlpha" type="matrix" values="0 0 0 0 0 0 0 0 0 0 0 0 0 0 0 0 0 0 127 0" result="hardAlpha"/>
<feOffset dy="4"/>
<feGaussianBlur stdDeviation="2"/>
<feComposite in2="hardAlpha" operator="out"/>
<feColorMatrix type="matrix" values="0 0 0 0 0 0 0 0 0 0 0 0 0 0 0 0 0 0 0.25 0"/>
<feBlend mode="normal" in2="BackgroundImageFix" result="effect1_dropShadow_2_470"/>
<feBlend mode="normal" in="SourceGraphic" in2="effect1_dropShadow_2_470" result="shape"/>
</filter>
</defs>
</svg>
